<svg width="136" height="20" viewBox="0 0 136 20" fill="none" xmlns="http://www.w3.org/2000/svg">
<path d="M15.1641 11.5117V9.97656C15.1641 8.17188 15.125 6.05078 15.0469 3.61328C15.0312 3.19922 14.1758 2.92188 12.4805 2.78125C12.3711 2.50781 12.3164 2.25781 12.3164 2.03125C12.3164 1.89062 12.3711 1.65234 12.4805 1.31641C13.668 1.36328 14.8594 1.38672 16.0547 1.38672C17.2578 1.38672 18.4922 1.36328 19.7578 1.31641C19.8672 1.65234 19.9219 1.89062 19.9219 2.03125C19.9219 2.25781 19.8672 2.50781 19.7578 2.78125C18.1406 2.9375 17.3242 3.21484 17.3086 3.61328C17.207 5.26172 17.1562 7.67188 17.1562 10.8438C17.1562 14.4219 17.207 17.3164 17.3086 19.5273L16.3477 19.5508L5.22656 5.94531C5.22656 6.08594 5.22266 6.34375 5.21484 6.71875C5.20703 7.08594 5.20312 7.37109 5.20312 7.57422C5.20312 11.3477 5.25391 14.5625 5.35547 17.2188C5.37109 17.6406 6.22656 17.9219 7.92188 18.0625C8.03125 18.3359 8.08594 18.5859 8.08594 18.8125C8.08594 18.9844 8.03125 19.2383 7.92188 19.5742C6.71875 19.5273 5.52734 19.5039 4.34766 19.5039C3.14453 19.5039 1.91016 19.5273 0.644531 19.5742C0.535156 19.2383 0.480469 18.9844 0.480469 18.8125C0.480469 18.5859 0.535156 18.3359 0.644531 18.0625C2.26172 17.9062 3.07812 17.625 3.09375 17.2188C3.1875 15.5781 3.23438 13.1719 3.23438 10C3.23438 7.57031 3.20312 5.40234 3.14062 3.49609C2.63281 3.09766 1.85938 2.85938 0.820312 2.78125C0.703125 2.57031 0.644531 2.32812 0.644531 2.05469C0.644531 1.76562 0.71875 1.50391 0.867188 1.26953C2.5 1.34766 4.5625 1.38672 7.05469 1.38672L15.1641 11.5117ZM16.6758 10.8438C16.6758 8.47656 16.7266 6.06641 16.8281 3.61328C16.8594 2.91016 17.7227 2.48047 19.418 2.32422C19.4805 2.19141 19.4805 2.00781 19.418 1.77344C17.9414 1.82031 16.8945 1.84375 16.2773 1.84375C15.3008 1.84375 14.1875 1.82031 12.9375 1.77344C12.875 2.00781 12.875 2.19141 12.9375 2.32422C14.6484 2.48047 15.5117 2.91016 15.5273 3.61328C15.6055 6.05078 15.6445 8.17188 15.6445 9.97656C15.6445 11.0312 15.6289 12.4531 15.5977 14.2422L5.49609 1.86719C3.73828 1.86719 2.28125 1.83594 1.125 1.77344C1.0625 1.96094 1.0625 2.14453 1.125 2.32422C2.13281 2.38672 2.96484 2.70703 3.62109 3.28516C3.68359 5.18359 3.71484 7.42188 3.71484 10C3.71484 12.3672 3.66797 14.7734 3.57422 17.2188C3.54297 17.9297 2.67969 18.3633 0.984375 18.5195C0.921875 18.6445 0.921875 18.8281 0.984375 19.0703C2.45312 19.0234 3.5 19 4.125 19C5.10156 19 6.21484 19.0234 7.46484 19.0703C7.52734 18.8281 7.52734 18.6445 7.46484 18.5195C5.75391 18.3633 4.89062 17.9297 4.875 17.2188C4.79688 14.7891 4.75781 12.6719 4.75781 10.8672C4.75781 8.80469 4.78125 6.76172 4.82812 4.73828H4.94531L16.582 19.0703L16.8047 19.0469C16.7188 17.2109 16.6758 14.4766 16.6758 10.8438ZM40.9805 18.5195C40.543 18.4961 40.1172 18.4648 39.7031 18.4258C39.2969 18.3789 38.9258 18.3164 38.5898 18.2383C38.2539 18.1602 37.9688 18.0586 37.7344 17.9336C37.5078 17.8008 37.3594 17.6367 37.2891 17.4414L30.8086 1.43359C30.6758 1.44141 30.5469 1.49609 30.4219 1.59766C30.3672 2.56641 30.0703 3.34375 29.5312 3.92969L29.8008 4.62109L24.8555 17.0547C24.543 17.8359 23.582 18.3242 21.9727 18.5195C21.9258 18.6289 21.9023 18.7266 21.9023 18.8125C21.9023 18.9062 21.9258 19 21.9727 19.0938C22.8633 19.0625 23.5781 19.0391 24.1172 19.0234C24.6641 19.0078 25.0391 19 25.2422 19C25.4219 19 25.8281 19.0078 26.4609 19.0234C27.1016 19.0391 27.9688 19.0625 29.0625 19.0938C29.1094 19 29.1328 18.9062 29.1328 18.8125C29.1328 18.7266 29.1094 18.6289 29.0625 18.5195C28.4141 18.457 27.8867 18.3906 27.4805 18.3203C27.0742 18.2422 26.7578 18.1602 26.5312 18.0742C26.3047 17.9883 26.1523 17.8945 26.0742 17.793C25.9961 17.6836 25.957 17.5625 25.957 17.4297C25.957 17.3438 25.9727 17.2578 26.0039 17.1719L27.7148 12.8828C28.582 12.8672 29.2812 12.8555 29.8125 12.8477C30.3516 12.8398 30.7227 12.8359 30.9258 12.8359C31.3711 12.8359 31.7656 12.8398 32.1094 12.8477C32.4609 12.8477 32.7617 12.8516 33.0117 12.8594L34.7109 17.1719C34.75 17.2891 34.7695 17.3789 34.7695 17.4414C34.7695 17.6523 34.6602 17.8398 34.4414 18.0039C34.2305 18.168 33.9688 18.2812 33.6562 18.3438L32.3906 18.5195C32.3438 18.6289 32.3203 18.7266 32.3203 18.8125C32.3203 18.9062 32.3438 19 32.3906 19.0938C33.0547 19.0703 33.7266 19.0508 34.4062 19.0352C35.0938 19.0195 35.7969 19.0117 36.5156 19.0117C37.2344 19.0117 37.9609 19.0195 38.6953 19.0352C39.4375 19.0508 40.1992 19.0703 40.9805 19.0938C41.0352 18.9844 41.0625 18.8906 41.0625 18.8125C41.0625 18.7656 41.0547 18.7188 41.0391 18.6719C41.0234 18.625 41.0039 18.5742 40.9805 18.5195ZM30.9258 11.9219C29.793 11.9219 28.8594 11.9062 28.125 11.875L30.3516 6.13281H30.3984L32.6367 11.8984C32.2148 11.9141 31.6445 11.9219 30.9258 11.9219ZM30.375 7.36328L28.8164 11.418C29.7617 11.4648 30.8008 11.4727 31.9336 11.4414L30.375 7.36328ZM41.3438 18.0859C41.5391 18.5547 41.5312 19.0508 41.3203 19.5742H32.0273C31.8398 19.0352 31.8398 18.5391 32.0273 18.0859C32.8789 18.0391 33.4805 17.9531 33.832 17.8281C34.1836 17.6953 34.3047 17.4844 34.1953 17.1953L32.6602 13.3164C31.2148 13.2617 29.668 13.2773 28.0195 13.3633L26.5078 17.2422C26.4609 17.375 26.4961 17.4961 26.6133 17.6055C26.7383 17.707 26.9375 17.7891 27.2109 17.8516C27.4844 17.9141 27.8047 17.9648 28.1719 18.0039C28.5391 18.043 28.9531 18.0703 29.4141 18.0859C29.6094 18.5547 29.6016 19.0508 29.3906 19.5742C26.8281 19.4805 24.2461 19.4805 21.6445 19.5742C21.4336 19.0508 21.4258 18.5547 21.6211 18.0859C23.2305 17.8984 24.1406 17.5469 24.3516 17.0312L29.2969 4.59766C29.2656 4.53516 29.2031 4.39453 29.1094 4.17578C29.0234 3.94922 28.9727 3.80078 28.957 3.73047C29.5664 3.11328 29.9023 2.31641 29.9648 1.33984C30.6523 1.00391 31.4609 0.8125 32.3906 0.765625L38.9648 17.0781C39.1133 17.4453 39.3477 17.6914 39.668 17.8164C39.9883 17.9336 40.5469 18.0234 41.3438 18.0859ZM56.4492 17.3945C56.4492 17.9727 55.5469 18.3477 53.7422 18.5195C53.6797 18.6445 53.6797 18.8281 53.7422 19.0703C55.0703 19.0234 56.4297 19 57.8203 19C59.4844 19 61.0859 19.0234 62.625 19.0703C62.6875 18.9297 62.6875 18.7461 62.625 18.5195C60.0312 18.3633 58.7266 17.9883 58.7109 17.3945C58.625 15.457 58.582 13.1367 58.582 10.4336C58.582 7.71484 58.625 5.38672 58.7109 3.44922C58.7266 2.85547 60.0312 2.48047 62.625 2.32422C62.7031 2.12891 62.7031 1.94531 62.625 1.77344C60.5703 1.83594 58.9688 1.86719 57.8203 1.86719C56.8594 1.86719 55.5 1.83594 53.7422 1.77344C53.6953 1.96094 53.6953 2.14453 53.7422 2.32422C55.5312 2.49609 56.4336 2.87109 56.4492 3.44922C56.4961 4.88672 56.5352 7.05469 56.5664 9.95312C55.1289 10 53.7695 10.0234 52.4883 10.0234C50.3477 10.0234 48.7969 10.0078 47.8359 9.97656C47.8359 7.35156 47.8828 5.17578 47.9766 3.44922C47.9922 2.85547 49.2969 2.48047 51.8906 2.32422C51.9375 2.17578 51.9375 1.99219 51.8906 1.77344C49.8438 1.83594 48.2422 1.86719 47.0859 1.86719C46.1328 1.86719 44.7734 1.83594 43.0078 1.77344C42.9453 1.91406 42.9453 2.09766 43.0078 2.32422C44.8047 2.49609 45.7109 2.87109 45.7266 3.44922C45.8047 5.28516 45.8438 7.46875 45.8438 10C45.8438 12.4766 45.7969 14.9414 45.7031 17.3945C45.6875 17.9727 44.7812 18.3477 42.9844 18.5195C42.9219 18.6445 42.9219 18.8281 42.9844 19.0703C44.3125 19.0234 45.6719 19 47.0625 19C48.7266 19 50.3281 19.0234 51.8672 19.0703C51.9297 18.9453 51.9297 18.7617 51.8672 18.5195C49.2734 18.3633 47.9688 17.9883 47.9531 17.3945C47.875 15.043 47.8359 12.8438 47.8359 10.7969C49.7578 10.7578 51.3086 10.7383 52.4883 10.7383C53.7695 10.7383 55.1289 10.7656 56.5664 10.8203C56.5508 12.5625 56.5117 14.7539 56.4492 17.3945ZM55.9688 17.3945C56.0312 14.2852 56.0703 12.3242 56.0859 11.5117C54.5547 11.4805 53.3555 11.4648 52.4883 11.4648C51.8164 11.4648 51.1875 11.4688 50.6016 11.4766C50.0234 11.4844 49.7031 11.4883 49.6406 11.4883C49.6406 13.293 49.6797 15.2539 49.7578 17.3711C49.7578 17.418 49.7734 17.4648 49.8047 17.5117C49.8359 17.5586 49.8906 17.5977 49.9688 17.6289C50.0469 17.6602 50.125 17.6953 50.2031 17.7344C50.2891 17.7656 50.3945 17.7969 50.5195 17.8281C50.6523 17.8594 50.7695 17.8867 50.8711 17.9102C50.9727 17.9336 51.1016 17.957 51.2578 17.9805C51.4219 18.0039 51.5508 18.0234 51.6445 18.0391C51.7461 18.0547 51.8789 18.0703 52.043 18.0859C52.2148 18.1016 52.332 18.1172 52.3945 18.1328C52.5195 18.5703 52.4961 19.0508 52.3242 19.5742C49.4414 19.5117 47.6875 19.4805 47.0625 19.4805C46.6484 19.4805 45.1797 19.5117 42.6562 19.5742C42.4609 19.0352 42.4609 18.5312 42.6562 18.0625C44.3516 17.8906 45.207 17.6602 45.2227 17.3711C45.3164 14.918 45.3633 12.4609 45.3633 10C45.3633 7.48438 45.3242 5.30859 45.2461 3.47266C45.2305 3.18359 44.3594 2.95313 42.6328 2.78125C42.5 2.28125 42.5156 1.77734 42.6797 1.26953C43.3672 1.26953 44.2969 1.28906 45.4688 1.32812C46.6484 1.36719 47.4688 1.38672 47.9297 1.38672C48.2656 1.38672 48.9141 1.37891 49.875 1.36328C50.8359 1.34766 51.668 1.33984 52.3711 1.33984C52.5117 1.78516 52.5195 2.26562 52.3945 2.78125C50.668 2.95313 49.7969 3.18359 49.7812 3.47266C49.6875 5.62891 49.6406 7.64453 49.6406 9.51953C50.3906 9.56641 51.3398 9.57422 52.4883 9.54297L56.0859 9.49609C56.0547 6.94922 56.0156 4.94141 55.9688 3.47266C55.9531 3.18359 55.082 2.95313 53.3555 2.78125C53.2148 2.23437 53.2305 1.73047 53.4023 1.26953C54.5352 1.34766 56.0703 1.38672 58.0078 1.38672C58.375 1.38672 59.1211 1.37891 60.2461 1.36328C61.3789 1.34766 62.3281 1.33984 63.0938 1.33984C63.2422 1.78516 63.2539 2.26562 63.1289 2.78125C61.3945 2.95313 60.5195 3.18359 60.5039 3.47266C60.4258 5.41016 60.3867 7.73047 60.3867 10.4336C60.3867 13.1211 60.4258 15.4336 60.5039 17.3711C60.5195 17.6602 61.3945 17.8906 63.1289 18.0625C63.2539 18.5625 63.2344 19.0664 63.0703 19.5742C60.5469 19.5117 59.0781 19.4805 58.6641 19.4805C58.0391 19.4805 56.2852 19.5117 53.4023 19.5742C53.2148 19.0352 53.2148 18.5312 53.4023 18.0625C55.1133 17.8906 55.9688 17.668 55.9688 17.3945ZM74.8359 2.72266C74.2344 2.76953 73.6953 2.91406 73.2188 3.15625C72.7422 3.39844 72.3242 3.71484 71.9648 4.10547C71.6055 4.48828 71.2969 4.92969 71.0391 5.42969C70.7891 5.92188 70.582 6.44531 70.418 7C70.2617 7.55469 70.1445 8.12891 70.0664 8.72266C69.9961 9.30859 69.9609 9.88672 69.9609 10.457C69.9609 11.0273 69.9961 11.6094 70.0664 12.2031C70.1445 12.7891 70.2656 13.3594 70.4297 13.9141C70.5938 14.4688 70.8008 14.9922 71.0508 15.4844C71.3086 15.9766 71.6172 16.4141 71.9766 16.7969C72.3438 17.1719 72.7617 17.4766 73.2305 17.7109C73.707 17.9453 74.2422 18.0859 74.8359 18.1328C75.4453 18.0859 75.9883 17.9453 76.4648 17.7109C76.9414 17.4688 77.3594 17.1602 77.7188 16.7852C78.0859 16.4023 78.3945 15.9648 78.6445 15.4727C78.9023 14.9727 79.1094 14.4492 79.2656 13.9023C79.4297 13.3477 79.5469 12.7773 79.6172 12.1914C79.6953 11.5977 79.7344 11.0195 79.7344 10.457C79.7344 9.88672 79.6953 9.30859 79.6172 8.72266C79.5469 8.12891 79.4297 7.55469 79.2656 7C79.1094 6.4375 78.9023 5.91016 78.6445 5.41797C78.3945 4.91797 78.0859 4.47656 77.7188 4.09375C77.3594 3.71094 76.9375 3.39844 76.4531 3.15625C75.9766 2.91406 75.4375 2.76953 74.8359 2.72266ZM74.4258 18.6367C73.6523 18.6367 72.9609 18.5234 72.3516 18.2969C71.7422 18.0625 71.2031 17.75 70.7344 17.3594C70.2734 16.9609 69.8789 16.4961 69.5508 15.9648C69.2305 15.4336 68.9648 14.8672 68.7539 14.2656C68.5508 13.6562 68.4023 13.0273 68.3086 12.3789C68.2148 11.7227 68.168 11.082 68.168 10.457C68.168 9.83203 68.2148 9.19531 68.3086 8.54688C68.4023 7.89062 68.5508 7.25781 68.7539 6.64844C68.957 6.03906 69.2227 5.46484 69.5508 4.92578C69.8789 4.38672 70.2734 3.91797 70.7344 3.51953C71.1953 3.12109 71.7305 2.80469 72.3398 2.57031C72.957 2.33594 73.6523 2.21875 74.4258 2.21875C75.1367 2.21875 75.7734 2.33594 76.3359 2.57031C76.8984 2.79687 77.3906 3.11328 77.8125 3.51953C78.2422 3.91797 78.6094 4.38672 78.9141 4.92578C79.2188 5.46484 79.4648 6.03906 79.6523 6.64844C79.8477 7.25781 79.9883 7.89062 80.0742 8.54688C80.168 9.19531 80.2148 9.83203 80.2148 10.457C80.2148 11.082 80.1719 11.7188 80.0859 12.3672C80 13.0078 79.8594 13.6328 79.6641 14.2422C79.4766 14.8438 79.2305 15.4141 78.9258 15.9531C78.6289 16.4844 78.2656 16.9492 77.8359 17.3477C77.4062 17.7461 76.9102 18.0625 76.3477 18.2969C75.7852 18.5234 75.1445 18.6367 74.4258 18.6367ZM74.4258 19.4805C74.9648 19.4805 75.5469 19.4258 76.1719 19.3164C76.7969 19.207 77.418 19.0195 78.0352 18.7539C78.6602 18.4883 79.2617 18.1328 79.8398 17.6875C80.418 17.2422 80.9258 16.6875 81.3633 16.0234C81.8086 15.3516 82.1641 14.5586 82.4297 13.6445C82.6953 12.7227 82.8281 11.6602 82.8281 10.457C82.8281 9.27734 82.6953 8.23438 82.4297 7.32812C82.1719 6.41406 81.8242 5.62109 81.3867 4.94922C80.9492 4.27734 80.4453 3.71484 79.875 3.26172C79.3047 2.80859 78.707 2.44531 78.082 2.17188C77.457 1.89062 76.8281 1.69141 76.1953 1.57422C75.5703 1.44922 74.9805 1.38672 74.4258 1.38672C73.8867 1.38672 73.293 1.44141 72.6445 1.55078C71.9961 1.65234 71.3438 1.83594 70.6875 2.10156C70.0312 2.35938 69.3945 2.71094 68.7773 3.15625C68.1602 3.60156 67.6133 4.16016 67.1367 4.83203C66.6602 5.50391 66.2773 6.30469 65.9883 7.23438C65.6992 8.15625 65.5547 9.23047 65.5547 10.457C65.5547 11.6445 65.6914 12.6914 65.9648 13.5977C66.2461 14.5039 66.6172 15.293 67.0781 15.9648C67.5391 16.6289 68.0703 17.1875 68.6719 17.6406C69.2812 18.0859 69.9141 18.4453 70.5703 18.7188C71.2266 18.9922 71.8867 19.1875 72.5508 19.3047C73.2148 19.4219 73.8398 19.4805 74.4258 19.4805ZM74.8359 20.0078C73.2656 20.0078 71.875 19.7773 70.6641 19.3164C69.4531 18.8633 68.4336 18.2227 67.6055 17.3945C66.7773 16.5586 66.1484 15.5547 65.7188 14.3828C65.2891 13.2031 65.0742 11.8945 65.0742 10.457C65.0742 9.01953 65.2891 7.71484 65.7188 6.54297C66.1484 5.36328 66.7773 4.35938 67.6055 3.53125C68.4336 2.69531 69.4531 2.05078 70.6641 1.59766C71.875 1.13672 73.2656 0.90625 74.8359 0.90625C76.3125 0.90625 77.6523 1.11719 78.8555 1.53906C80.0664 1.96094 81.0977 2.57813 81.9492 3.39062C82.8086 4.19531 83.4688 5.19141 83.9297 6.37891C84.3984 7.56641 84.6328 8.92578 84.6328 10.457C84.6328 11.9961 84.3984 13.3594 83.9297 14.5469C83.4688 15.7266 82.8086 16.7227 81.9492 17.5352C81.0977 18.3477 80.0664 18.9609 78.8555 19.375C77.6523 19.7969 76.3125 20.0078 74.8359 20.0078ZM89.5664 17.2188C89.5352 17.9297 88.6719 18.3633 86.9766 18.5195C86.9141 18.6445 86.9141 18.8281 86.9766 19.0703C88.4531 19.0234 89.5 19 90.1172 19C91.0938 19 92.207 19.0234 93.457 19.0703C93.5195 18.8281 93.5195 18.6445 93.457 18.5195C91.7461 18.3633 90.8828 17.9297 90.8672 17.2188C90.7891 14.7891 90.75 12.6719 90.75 10.8672C90.75 8.39844 90.7812 6.21484 90.8438 4.31641H90.9609L96.6797 18.707H96.7969L102.141 4.59766H102.246C102.324 6.94922 102.363 9.03906 102.363 10.8672C102.363 13.4062 102.324 15.5742 102.246 17.3711C102.23 17.5742 102.137 17.75 101.965 17.8984C101.801 18.0391 101.555 18.1523 101.227 18.2383C100.898 18.3164 100.621 18.3711 100.395 18.4023C100.168 18.4336 99.8789 18.4648 99.5273 18.4961C99.4648 18.6211 99.4648 18.8047 99.5273 19.0469C100.855 19 102.215 18.9766 103.605 18.9766C105.27 18.9766 106.871 19 108.41 19.0469C108.473 18.9062 108.473 18.7227 108.41 18.4961C105.816 18.3398 104.512 17.9727 104.496 17.3945C104.402 14.9414 104.355 12.4766 104.355 10C104.355 7.60156 104.387 5.41797 104.449 3.44922C104.465 2.87109 105.77 2.50391 108.363 2.34766C108.426 2.12109 108.426 1.9375 108.363 1.79688C106.824 1.84375 104.777 1.86719 102.223 1.86719L97.2305 14.8984L92.4258 1.86719C90.5195 1.86719 88.832 1.83594 87.3633 1.77344C87.2852 1.92969 87.2852 2.07812 87.3633 2.21875C88.293 2.35156 88.8984 2.54688 89.1797 2.80469C89.4688 3.05469 89.6211 3.63672 89.6367 4.55078C89.6914 6.47266 89.7188 8.28906 89.7188 10C89.7188 12.3672 89.668 14.7734 89.5664 17.2188ZM89.0859 17.2188C89.1875 14.7578 89.2383 12.3516 89.2383 10C89.2383 8.28906 89.2109 6.47266 89.1562 4.55078C89.1406 3.83203 89 3.37109 88.7344 3.16797C88.4766 2.95703 87.9141 2.79297 87.0469 2.67578C86.8281 2.19922 86.8359 1.73047 87.0703 1.26953C88.8672 1.34766 91.2031 1.38672 94.0781 1.38672L97.9219 11.6523L101.883 1.38672C103.977 1.38672 106.289 1.35547 108.82 1.29297C108.977 1.80078 108.992 2.30469 108.867 2.80469C107.141 2.97656 106.27 3.20703 106.254 3.49609C106.184 4.96484 106.148 7.13281 106.148 10C106.148 12.9609 106.199 15.4102 106.301 17.3477C106.316 17.6367 107.188 17.8672 108.914 18.0391C109.039 18.5391 109.023 19.043 108.867 19.5508C106.336 19.4883 104.863 19.457 104.449 19.457C103.824 19.457 102.074 19.4883 99.1992 19.5508C99.0039 19.0039 99.0039 18.5 99.1992 18.0391C100.895 17.8672 101.75 17.6445 101.766 17.3711C101.844 15.543 101.883 13.375 101.883 10.8672C101.883 8.91406 101.875 7.48047 101.859 6.56641L97.125 19.1875H96.3398L91.2305 6.30859V10.8672C91.2305 12.6719 91.2695 14.7891 91.3477 17.2188C91.3633 17.6406 92.2188 17.9219 93.9141 18.0625C94.1094 18.5312 94.1094 19.0352 93.9141 19.5742C91.5781 19.4805 89.1523 19.4805 86.6367 19.5742C86.4492 19.0352 86.4492 18.5312 86.6367 18.0625C88.2539 17.9062 89.0703 17.625 89.0859 17.2188ZM120.703 1.86719H114.809C113.832 1.86719 112.461 1.83594 110.695 1.77344V2.32422C112.492 2.49609 113.398 2.87109 113.414 3.44922C113.492 5.28516 113.531 7.46875 113.531 10C113.531 12.4766 113.484 14.9414 113.391 17.3945C113.375 17.9727 112.469 18.3477 110.672 18.5195C110.641 18.793 110.641 18.9766 110.672 19.0703C112.18 19.0234 115.684 19 121.184 19C123.105 19 124.551 18.6719 125.52 18.0156C126.488 17.3594 127.363 16.2305 128.145 14.6289C128.082 14.5039 127.945 14.4023 127.734 14.3242C126.312 16.9648 123.691 18.2852 119.871 18.2852H115.641C115.562 14.8711 115.523 12.375 115.523 10.7969L119.344 10.7734C119.68 10.7734 119.992 10.8281 120.281 10.9375C120.578 11.0469 120.812 11.1602 120.984 11.2773C121.164 11.3867 121.371 11.6016 121.605 11.9219C121.84 12.2422 122.004 12.4766 122.098 12.625C122.191 12.7656 122.355 13.0625 122.59 13.5156C122.824 13.9688 122.98 14.2617 123.059 14.3945C123.301 14.293 123.453 14.1875 123.516 14.0781C122.734 12.75 122.344 11.5273 122.344 10.4102C122.344 9.92578 122.453 9.33594 122.672 8.64062C122.898 7.94531 123.18 7.30859 123.516 6.73047C123.453 6.62109 123.301 6.51953 123.059 6.42578C122.996 6.53516 122.871 6.76953 122.684 7.12891C122.504 7.48828 122.383 7.72266 122.32 7.83203C122.266 7.93359 122.152 8.125 121.98 8.40625C121.816 8.6875 121.688 8.875 121.594 8.96875C121.5 9.0625 121.359 9.20312 121.172 9.39062C120.992 9.57031 120.816 9.69531 120.645 9.76562C120.48 9.82812 120.285 9.88672 120.059 9.94141C119.832 9.99609 119.594 10.0234 119.344 10.0234C117.664 10.0234 116.391 10.0078 115.523 9.97656C115.523 8.08594 115.57 5.62109 115.664 2.58203H119.391C123.211 2.58203 125.832 3.90234 127.254 6.54297C127.465 6.46484 127.602 6.35938 127.664 6.22656C126.883 4.63281 126.008 3.50781 125.039 2.85156C124.07 2.19531 122.625 1.86719 120.703 1.86719ZM122.32 6.8125L122.824 5.82812C123.48 6.0625 123.895 6.36328 124.066 6.73047C123.715 7.33984 123.418 8 123.176 8.71094C122.941 9.41406 122.824 9.98047 122.824 10.4102C122.824 11.4492 123.238 12.6719 124.066 14.0781C123.879 14.4766 123.48 14.7812 122.871 14.9922C122.582 14.5156 122.371 14.1484 122.238 13.8906C121.918 13.3594 121.664 12.9648 121.477 12.707C121.297 12.4414 121.023 12.1758 120.656 11.9102C120.289 11.6445 119.883 11.5039 119.438 11.4883H117.328C117.328 13.2148 117.359 15.3203 117.422 17.8047H119.848C121.832 17.8047 123.445 17.418 124.688 16.6445C125.938 15.8633 126.883 14.8867 127.523 13.7148C128.18 13.957 128.594 14.2617 128.766 14.6289C127.742 16.3242 127.137 17.9414 126.949 19.4805H117.223C114.137 19.4805 111.844 19.5039 110.344 19.5508C110.18 19.043 110.172 18.5469 110.32 18.0625C112.031 17.8906 112.895 17.6602 112.91 17.3711C113.004 14.918 113.051 12.4609 113.051 10C113.051 7.48438 113.012 5.30859 112.934 3.47266C112.918 3.18359 112.047 2.95313 110.32 2.78125C110.172 2.23437 110.188 1.73047 110.367 1.26953C112.766 1.34766 114.355 1.38672 115.137 1.38672H126.469C126.656 2.91797 127.266 4.53125 128.297 6.22656C128.117 6.60156 127.699 6.90625 127.043 7.14062C126.402 5.97656 125.457 5.00781 124.207 4.23438C122.965 3.45312 121.352 3.0625 119.367 3.0625H117.445C117.367 5.86719 117.328 8.01953 117.328 9.51953C117.82 9.53516 118.531 9.54297 119.461 9.54297C120.117 9.54297 120.641 9.32422 121.031 8.88672C121.422 8.44141 121.852 7.75 122.32 6.8125ZM132.105 16.8672C131.863 17.1328 131.742 17.4688 131.742 17.875C131.742 18.0703 131.773 18.2578 131.836 18.4375C131.906 18.6094 132 18.7617 132.117 18.8945C132.234 19.0195 132.367 19.1211 132.516 19.1992C132.672 19.2773 132.84 19.3164 133.02 19.3164C133.191 19.3164 133.352 19.2773 133.5 19.1992C133.656 19.1211 133.793 19.0195 133.91 18.8945C134.027 18.7617 134.117 18.6094 134.18 18.4375C134.25 18.2578 134.285 18.0703 134.285 17.875C134.285 17.6797 134.25 17.4961 134.18 17.3242C134.117 17.1523 134.027 17 133.91 16.8672C133.793 16.7344 133.656 16.6289 133.5 16.5508C133.352 16.4727 133.191 16.4336 133.02 16.4336C132.668 16.4336 132.363 16.5781 132.105 16.8672ZM133.184 15.9531C134.941 15.9531 135.82 16.5938 135.82 17.875C135.82 19.1562 134.941 19.7969 133.184 19.7969C132.926 19.7969 132.68 19.7461 132.445 19.6445C132.219 19.543 132.016 19.4062 131.836 19.2344C131.664 19.0625 131.523 18.8594 131.414 18.625C131.312 18.3906 131.262 18.1406 131.262 17.875C131.262 17.6094 131.312 17.3594 131.414 17.125C131.516 16.8906 131.652 16.6875 131.824 16.5156C132.004 16.3438 132.211 16.207 132.445 16.1055C132.68 16.0039 132.926 15.9531 133.184 15.9531Z" fill="white"/>
</svg>
